# xmcd
#
# Track frame offsets:
# 150
# 19937
# 32579
# 44881
# 62545
# 79150
# 93097
# 105850
# 126924
# 144909
# 162243
# 178537
# 193254
# 212391
# 225735
# 243884
#
# Disc length: 3495 seconds
#
#
# Revision: 0
# Processed by: cddbd v1.4PL0 Copyright (c) Steve Scherf et al.
# Submitted via: FreeRIP 2.00 
#
DISCID=cb0da510
DTITLE=Clint Black - The Greatest Hits
DYEAR=1900
DGENRE=
TTITLE0=Like the Rain
TTITLE1=Summers Comin
TTITLE2=A Good Run of Bad Luck
TTITLE3=State of Mind
TTITLE4=A Bad Goodbye
TTITLE5=A Better Man
TTITLE6=Killin Time
TTITLE7=We Tell Oursleves
TTITLE8=Half Way UP
TTITLE9=Burn One Down
TTITLE10=Cadillac Jack Favor
TTITLE11=Put Yourself In My Shoes
TTITLE12=Whenever You Go
TTITLE13=Life Gets Away
TTITLE14=No Time To Kill
TTITLE15=Desperado
EXTD=
EXTT0=
EXTT1=
EXTT2=
EXTT3=
EXTT4=
EXTT5=
EXTT6=
EXTT7=
EXTT8=
EXTT9=
EXTT10=
EXTT11=
EXTT12=
EXTT13=
EXTT14=
EXTT15=
PLAYORDER=
